
<svg xmlns="http://www.w3.org/2000/svg" viewBox="0 0 200 240" fill="none">
  <defs>
    <linearGradient id="fbody" x1="0" x2="0" y1="0" y2="1">
      <stop offset="0" stop-color="#46546a"></stop>
      <stop offset="1" stop-color="#1c2434"></stop>
    </linearGradient>
  </defs>
  <ellipse cx="100" cy="226" rx="58" ry="6" fill="#000" opacity=".35"></ellipse>
  
  <rect x="54" y="128" width="92" height="86" rx="20" fill="url(#fbody)" stroke="#0a0e1d" stroke-width="2"></rect>
  
  <rect x="68" y="146" width="64" height="48" rx="6" fill="#080c18" stroke="#0a0e1d" stroke-width="1.2"></rect>
  <path d="M76 156c4 4 8 0 12 4s8 0 12 4 8 0 12 4" stroke="#e0b959" stroke-width="2" fill="none"></path>
  <path d="M76 168c4 4 8 0 12 4s8 0 12 4 8 0 12 4" stroke="#7fe5e8" stroke-width="2" fill="none"></path>
  <path d="M76 180c4 4 8 0 12 4s8 0 12 4" stroke="#e25555" stroke-width="2" fill="none"></path>
  <circle cx="78" cy="156" r="2" fill="#e0b959"></circle>
  <circle cx="78" cy="168" r="2" fill="#7fe5e8"></circle>
  <circle cx="78" cy="180" r="2" fill="#e25555"></circle>
  
  <circle cx="48" cy="138" r="13" fill="#1c2434" stroke="#0a0e1d" stroke-width="2"></circle>
  <circle cx="152" cy="138" r="13" fill="#1c2434" stroke="#0a0e1d" stroke-width="2"></circle>
  
  <rect x="32" y="148" width="22" height="48" rx="11" fill="url(#fbody)" stroke="#0a0e1d" stroke-width="2"></rect>
  <rect x="36" y="194" width="14" height="22" rx="3" fill="#7a4f0f" stroke="#0a0e1d" stroke-width="1.5"></rect>
  
  <rect x="146" y="148" width="22" height="44" rx="11" fill="url(#fbody)" stroke="#0a0e1d" stroke-width="2"></rect>
  <rect x="148" y="190" width="18" height="14" rx="3" fill="#1c2434" stroke="#0a0e1d" stroke-width="1.4"></rect>
  <path d="M157 204 l-3 8 4-2 -2 8 8-10 -3 0 4-6Z" fill="#ff8f3a" stroke="#7a2c00" stroke-width="1.2" stroke-linejoin="round"></path>
  
  <rect x="92" y="118" width="16" height="16" rx="4" fill="#1c2434" stroke="#0a0e1d" stroke-width="2"></rect>
  
  <rect x="50" y="40" width="100" height="84" rx="20" fill="url(#fbody)" stroke="#0a0e1d" stroke-width="2.5"></rect>
  
  <rect x="46" y="52" width="108" height="6" rx="3" fill="#1c2434" stroke="#0a0e1d" stroke-width="2"></rect>
  
  <circle cx="84" cy="80" r="14" fill="#0a0e1d"></circle>
  <circle cx="84" cy="80" r="9" fill="#ff8f3a"></circle>
  <circle cx="80" cy="76" r="2.4" fill="#fff" opacity=".9"></circle>
  
  <circle cx="118" cy="80" r="10" fill="#0a0e1d"></circle>
  <circle cx="118" cy="80" r="6" fill="#7fe5e8"></circle>
  
  <rect x="86" y="104" width="28" height="6" rx="2" fill="#0a0e1d"></rect>
  
  <line x1="100" y1="40" x2="100" y2="24" stroke="#0a0e1d" stroke-width="2"></line>
  <path d="M96 24 l4 -8 4 8" stroke="#0a0e1d" stroke-width="2" fill="#e0b959"></path>
</svg>