
<svg xmlns="http://www.w3.org/2000/svg" viewBox="0 0 200 240" fill="none">
  <defs>
    <linearGradient id="vbody" x1="0" x2="0" y1="0" y2="1">
      <stop offset="0" stop-color="#3d4760"></stop>
      <stop offset="1" stop-color="#1f263a"></stop>
    </linearGradient>
    <linearGradient id="vhead" x1="0" x2="0" y1="0" y2="1">
      <stop offset="0" stop-color="#5a6680"></stop>
      <stop offset="1" stop-color="#2d3450"></stop>
    </linearGradient>
    <linearGradient id="vvisor" x1="0" x2="1" y1="0" y2="0">
      <stop offset="0" stop-color="#b88830"></stop>
      <stop offset=".5" stop-color="#ffd966"></stop>
      <stop offset="1" stop-color="#b88830"></stop>
    </linearGradient>
  </defs>
  
  <ellipse cx="100" cy="226" rx="56" ry="6" fill="#000" opacity=".35"></ellipse>
  
  <rect x="55" y="130" width="90" height="84" rx="22" fill="url(#vbody)" stroke="#0a0e1d" stroke-width="2"></rect>
  
  <rect x="70" y="148" width="60" height="40" rx="10" fill="#10172b" stroke="#7fe5e8" stroke-width="1.2" opacity=".95"></rect>
  
  <text x="100" y="173" text-anchor="middle" font-family="&#39;JetBrains Mono&#39;,monospace" font-size="13" font-weight="700" letter-spacing="2" fill="#e0b959">VEGA</text>
  
  <circle cx="48" cy="138" r="14" fill="#2d3450" stroke="#0a0e1d" stroke-width="2"></circle>
  <circle cx="152" cy="138" r="14" fill="#2d3450" stroke="#0a0e1d" stroke-width="2"></circle>
  
  <rect x="34" y="148" width="22" height="50" rx="11" fill="url(#vbody)" stroke="#0a0e1d" stroke-width="2"></rect>
  <rect x="144" y="148" width="22" height="50" rx="11" fill="url(#vbody)" stroke="#0a0e1d" stroke-width="2"></rect>
  
  <rect x="92" y="118" width="16" height="18" rx="4" fill="#2d3450" stroke="#0a0e1d" stroke-width="2"></rect>
  
  <rect x="50" y="40" width="100" height="86" rx="28" fill="url(#vhead)" stroke="#0a0e1d" stroke-width="2.5"></rect>
  
  <rect x="56" y="68" width="88" height="26" rx="13" fill="#0a0e1d" stroke="#0a0e1d" stroke-width="1"></rect>
  <rect x="60" y="72" width="80" height="18" rx="9" fill="url(#vvisor)"></rect>
  
  <circle cx="84" cy="81" r="3" fill="#fff" opacity=".95"></circle>
  <circle cx="116" cy="81" r="3" fill="#fff" opacity=".95"></circle>
  
  <line x1="100" y1="40" x2="100" y2="22" stroke="#0a0e1d" stroke-width="2.5"></line>
  <circle cx="100" cy="20" r="5" fill="#7fe5e8" stroke="#0a0e1d" stroke-width="1.5"></circle>
  
  <rect x="54" y="100" width="12" height="3" rx="1" fill="#0a0e1d"></rect>
  <rect x="54" y="106" width="12" height="3" rx="1" fill="#0a0e1d"></rect>
  <rect x="134" y="100" width="12" height="3" rx="1" fill="#0a0e1d"></rect>
  <rect x="134" y="106" width="12" height="3" rx="1" fill="#0a0e1d"></rect>
  
  <rect x="84" y="106" width="32" height="6" rx="2" fill="#0a0e1d"></rect>
  <rect x="86" y="108" width="3" height="2" rx="1" fill="#7fe5e8" opacity=".7"></rect>
  <rect x="92" y="108" width="3" height="2" rx="1" fill="#7fe5e8" opacity=".7"></rect>
  <rect x="98" y="108" width="3" height="2" rx="1" fill="#7fe5e8" opacity=".7"></rect>
  <rect x="104" y="108" width="3" height="2" rx="1" fill="#7fe5e8" opacity=".7"></rect>
  <rect x="110" y="108" width="3" height="2" rx="1" fill="#7fe5e8" opacity=".7"></rect>
  
  <path d="M62 50 Q72 44 86 44" stroke="#fff" stroke-width="2" stroke-linecap="round" opacity=".18" fill="none"></path>
</svg>