
<svg xmlns="http://www.w3.org/2000/svg" viewBox="0 0 256 256" class="naveo-char" data-character="atlas" data-expression="neutral"><defs><radialGradient id="atlas-fill" cx="38%" cy="32%" r="82%"><stop offset="0" stop-color="#4a465e"></stop><stop offset="0.55" stop-color="#2a2a3a"></stop><stop offset="1" stop-color="#16161e"></stop></radialGradient><filter id="atlas-brush" x="-10%" y="-10%" width="120%" height="120%"><feTurbulence type="fractalNoise" baseFrequency="0.05" numOctaves="2" seed="87" result="noise"></feTurbulence><feDisplacementMap in="SourceGraphic" in2="noise" scale="3.2"></feDisplacementMap></filter></defs><g class="silhouette" filter="url(#atlas-brush)"><path class="body" d="M 56 238 L 66 92 C 66 24 190 24 190 92 L 200 238 C 200 242 196 246 192 246 L 64 246 C 60 246 56 242 56 238 Z" fill="url(#atlas-fill)" stroke="#08080e" stroke-width="3.2" stroke-linejoin="round"></path><path class="body-sheen" d="M 56 238 L 66 92 C 66 24 190 24 190 92 L 200 238 C 200 242 196 246 192 246 L 64 246 C 60 246 56 242 56 238 Z" fill="none" stroke="#4a465e" stroke-width="2" stroke-linejoin="round" opacity="0.18" transform="translate(-3 -3)"></path></g><g class="insignia"><path d="M 114 67 L 128 54.4 L 142 67" fill="none" stroke="#d4a24c" stroke-width="3.2" stroke-linecap="round" stroke-linejoin="round"></path></g><g class="face"><g class="eye-left"><circle cx="104" cy="108" r="4.42" fill="#c9c3b2"></circle><circle cx="105.547" cy="106.232" r="1.2376" fill="#fff" opacity="0.55"></circle></g><g class="eye-right"><circle cx="152" cy="108" r="4.42" fill="#c9c3b2"></circle><circle cx="153.547" cy="106.232" r="1.2376" fill="#fff" opacity="0.55"></circle></g><path class="mouth" d="M 117.2 130 L 138.8 130" fill="none" stroke="#c9c3b2" stroke-width="3.2" stroke-linecap="round"></path></g></svg>