
<svg xmlns="http://www.w3.org/2000/svg" viewBox="0 0 256 256" class="naveo-char" data-character="echo" data-expression="neutral"><defs><radialGradient id="echo-fill" cx="38%" cy="32%" r="82%"><stop offset="0" stop-color="#74b3c2"></stop><stop offset="0.55" stop-color="#4c8a9a"></stop><stop offset="1" stop-color="#2e5f6e"></stop></radialGradient><filter id="echo-brush" x="-10%" y="-10%" width="120%" height="120%"><feTurbulence type="fractalNoise" baseFrequency="0.05" numOctaves="2" seed="94" result="noise"></feTurbulence><feDisplacementMap in="SourceGraphic" in2="noise" scale="3.2"></feDisplacementMap></filter></defs><g class="silhouette" filter="url(#echo-brush)"><path class="body" d="M 128 36 C 156 50 200 86 216 132 C 214 158 174 222 128 240 C 82 222 42 158 40 132 C 56 86 100 50 128 36 Z" fill="url(#echo-fill)" stroke="#1a3a44" stroke-width="3.2" stroke-linejoin="round"></path><path class="body-sheen" d="M 128 36 C 156 50 200 86 216 132 C 214 158 174 222 128 240 C 82 222 42 158 40 132 C 56 86 100 50 128 36 Z" fill="none" stroke="#74b3c2" stroke-width="2" stroke-linejoin="round" opacity="0.18" transform="translate(-3 -3)"></path></g><g class="insignia" opacity="0.85"><line x1="56" y1="116" x2="200" y2="116" stroke="#d4a24c" stroke-width="1.4" stroke-linecap="round" opacity="0.55"></line><circle cx="128" cy="116" r="2.2" fill="#d4a24c"></circle></g><g class="face"><g class="eye-left"><circle cx="94" cy="130" r="6.8" fill="#0a1c22"></circle><circle cx="96.38" cy="127.28" r="1.9040000000000001" fill="#fff" opacity="0.55"></circle></g><g class="eye-right"><circle cx="162" cy="130" r="6.8" fill="#0a1c22"></circle><circle cx="164.38" cy="127.28" r="1.9040000000000001" fill="#fff" opacity="0.55"></circle></g><path class="mouth" d="M 119.9 158 L 136.1 158" fill="none" stroke="#0a1c22" stroke-width="2.6" stroke-linecap="round"></path></g></svg>