
<svg xmlns="http://www.w3.org/2000/svg" viewBox="0 0 256 256" class="naveo-char" data-character="forge" data-expression="neutral"><defs><radialGradient id="forge-fill" cx="38%" cy="32%" r="82%"><stop offset="0" stop-color="#c98c68"></stop><stop offset="0.55" stop-color="#a06a4c"></stop><stop offset="1" stop-color="#6b4628"></stop></radialGradient><filter id="forge-brush" x="-10%" y="-10%" width="120%" height="120%"><feTurbulence type="fractalNoise" baseFrequency="0.05" numOctaves="2" seed="57" result="noise"></feTurbulence><feDisplacementMap in="SourceGraphic" in2="noise" scale="3.2"></feDisplacementMap></filter></defs><g class="silhouette" filter="url(#forge-brush)"><path class="body" d="M 78 46 C 56 48 46 60 48 80 L 52 196 C 52 216 64 224 84 224 L 188 224 C 212 224 216 208 212 188 L 208 76 C 206 56 192 46 178 48 Z" fill="url(#forge-fill)" stroke="#3e2412" stroke-width="3.2" stroke-linejoin="round"></path><path class="body-sheen" d="M 78 46 C 56 48 46 60 48 80 L 52 196 C 52 216 64 224 84 224 L 188 224 C 212 224 216 208 212 188 L 208 76 C 206 56 192 46 178 48 Z" fill="none" stroke="#c98c68" stroke-width="2" stroke-linejoin="round" opacity="0.18" transform="translate(-3 -3)"></path></g><g class="insignia"><rect x="114" y="60" width="8" height="8" rx="1.5" fill="#d4a24c" transform="rotate(45 118 64)"></rect><circle cx="138" cy="64" r="3.4" fill="#d4a24c"></circle></g><g class="face"><g class="eye-left"><circle cx="96" cy="128" r="7.5" fill="#2c1808"></circle><circle cx="98.625" cy="125" r="2.1" fill="#fff" opacity="0.55"></circle></g><g class="eye-right"><circle cx="160" cy="128" r="7.5" fill="#2c1808"></circle><circle cx="162.625" cy="125" r="2.1" fill="#fff" opacity="0.55"></circle></g><ellipse class="mouth" cx="128" cy="159" rx="2.88" ry="3.52" fill="#2c1808"></ellipse></g></svg>