
<svg xmlns="http://www.w3.org/2000/svg" viewBox="0 0 200 240" fill="none">
  <defs>
    <linearGradient id="hbody" x1="0" x2="0" y1="0" y2="1">
      <stop offset="0" stop-color="#3b2e52"></stop>
      <stop offset="1" stop-color="#1d1430"></stop>
    </linearGradient>
    <linearGradient id="hvisor" x1="0" x2="1" y1="0" y2="0">
      <stop offset="0" stop-color="#5a3b78"></stop>
      <stop offset=".5" stop-color="#c79cf2"></stop>
      <stop offset="1" stop-color="#5a3b78"></stop>
    </linearGradient>
  </defs>

  <ellipse cx="100" cy="226" rx="56" ry="6" fill="#000" opacity=".35"></ellipse>

  <polygon points="100,128 146,150 146,196 100,218 54,196 54,150" fill="url(#hbody)" stroke="#0a0e1d" stroke-width="2"></polygon>

  <polygon points="100,148 128,162 128,190 100,204 72,190 72,162" fill="#0e1726" stroke="#c79cf2" stroke-width="1" opacity=".95"></polygon>

  <text x="100" y="180" text-anchor="middle" font-family="'JetBrains Mono',monospace" font-size="11" font-weight="700" letter-spacing="3" fill="#c79cf2">HEX</text>

  <text x="84" y="166" text-anchor="middle" font-family="'JetBrains Mono',monospace" font-size="7" fill="#c79cf2" opacity=".75">✦</text>
  <text x="116" y="166" text-anchor="middle" font-family="'JetBrains Mono',monospace" font-size="7" fill="#c79cf2" opacity=".55">✦</text>

  <circle cx="50" cy="156" r="12" fill="#1f1530" stroke="#0a0e1d" stroke-width="2"></circle>
  <circle cx="150" cy="156" r="12" fill="#1f1530" stroke="#0a0e1d" stroke-width="2"></circle>

  <rect x="36" y="164" width="20" height="42" rx="10" fill="url(#hbody)" stroke="#0a0e1d" stroke-width="2"></rect>
  <rect x="144" y="164" width="20" height="42" rx="10" fill="url(#hbody)" stroke="#0a0e1d" stroke-width="2"></rect>

  <rect x="92" y="116" width="16" height="16" rx="4" fill="#1f1530" stroke="#0a0e1d" stroke-width="2"></rect>

  <polygon points="100,40 142,62 142,108 100,128 58,108 58,62" fill="url(#hbody)" stroke="#0a0e1d" stroke-width="2.5"></polygon>

  <rect x="62" y="72" width="76" height="22" rx="6" fill="#0a0e1d" stroke="#0a0e1d" stroke-width="1"></rect>
  <rect x="66" y="76" width="68" height="14" rx="3" fill="url(#hvisor)"></rect>

  <circle cx="84" cy="83" r="2.4" fill="#fff" opacity=".95"></circle>
  <circle cx="116" cy="83" r="2.4" fill="#fff" opacity=".95"></circle>

  <text x="100" y="58" text-anchor="middle" font-family="'JetBrains Mono',monospace" font-size="10" fill="#c79cf2" opacity=".85">✦</text>

  <line x1="100" y1="40" x2="100" y2="22" stroke="#0a0e1d" stroke-width="2.5"></line>
  <circle cx="100" cy="20" r="5" fill="#c79cf2" stroke="#0a0e1d" stroke-width="1.5"></circle>

  <rect x="84" y="100" width="32" height="6" rx="2" fill="#0a0e1d"></rect>
  <rect x="86" y="102" width="4" height="2" rx="1" fill="#c79cf2" opacity=".75"></rect>
  <rect x="94" y="102" width="4" height="2" rx="1" fill="#c79cf2" opacity=".45"></rect>
  <rect x="102" y="102" width="4" height="2" rx="1" fill="#c79cf2" opacity=".75"></rect>
  <rect x="110" y="102" width="4" height="2" rx="1" fill="#c79cf2" opacity=".45"></rect>
</svg>
