
<svg xmlns="http://www.w3.org/2000/svg" viewBox="0 0 256 256" class="naveo-char" data-character="vega" data-expression="neutral"><defs><radialGradient id="vega-fill" cx="38%" cy="32%" r="82%"><stop offset="0" stop-color="#c4b06a"></stop><stop offset="0.55" stop-color="#9a8a4c"></stop><stop offset="1" stop-color="#5e5328"></stop></radialGradient><filter id="vega-brush" x="-10%" y="-10%" width="120%" height="120%"><feTurbulence type="fractalNoise" baseFrequency="0.05" numOctaves="2" seed="39" result="noise"></feTurbulence><feDisplacementMap in="SourceGraphic" in2="noise" scale="3.2"></feDisplacementMap></filter></defs><g class="silhouette" filter="url(#vega-brush)"><path class="body" d="M 134 46 C 92 48 54 88 50 142 C 48 196 86 232 132 234 C 180 234 212 198 210 148 C 208 94 176 46 134 46 Z" fill="url(#vega-fill)" stroke="#3a3214" stroke-width="3.2" stroke-linejoin="round"></path><path class="body-sheen" d="M 134 46 C 92 48 54 88 50 142 C 48 196 86 232 132 234 C 180 234 212 198 210 148 C 208 94 176 46 134 46 Z" fill="none" stroke="#c4b06a" stroke-width="2" stroke-linejoin="round" opacity="0.18" transform="translate(-3 -3)"></path></g><g class="insignia"><path d="M 128 184.5 L 135.5 192 L 128 199.5 L 120.5 192 Z" fill="#d4a24c" stroke="#a67a2e" stroke-width="0.8"></path><circle cx="125.375" cy="189.375" r="1.3499999999999999" fill="#fff" opacity="0.6"></circle></g><g class="face"><g class="eye-left"><circle cx="98" cy="132" r="5.888000000000001" fill="#1f1a08"></circle><circle cx="100.0608" cy="129.6448" r="1.6486400000000003" fill="#fff" opacity="0.55"></circle></g><g class="eye-right"><circle cx="158" cy="132" r="5.888000000000001" fill="#1f1a08"></circle><circle cx="160.0608" cy="129.6448" r="1.6486400000000003" fill="#fff" opacity="0.55"></circle></g><path class="mouth" d="M 117 157 Q 128 162.5 139 157" fill="none" stroke="#1f1a08" stroke-width="2.6" stroke-linecap="round"></path></g></svg>