
<svg xmlns="http://www.w3.org/2000/svg" viewBox="0 0 640 200" class="naveo-mark" data-variant="wordmark"><g transform="translate(-8 0) scale(0.78)"><defs><radialGradient id="w296792-hull" cx="62%" cy="22%" r="95%"><stop offset="0" stop-color="#7ba8b8"></stop><stop offset="0.5" stop-color="#4c768a"></stop><stop offset="1" stop-color="#2a4858"></stop></radialGradient><radialGradient id="w296792-flame" cx="55%" cy="60%" r="65%"><stop offset="0" stop-color="#fff7d8"></stop><stop offset="0.4" stop-color="#f0c478"></stop><stop offset="1" stop-color="#a67a2e"></stop></radialGradient><radialGradient id="w296792-window" cx="42%" cy="40%" r="80%"><stop offset="0" stop-color="#f0c478" stop-opacity="0.95"></stop><stop offset="0.6" stop-color="#d4a24c" stop-opacity="0.55"></stop><stop offset="1" stop-color="#d4a24c" stop-opacity="0"></stop></radialGradient><filter id="w296792-brush" x="-12%" y="-12%" width="124%" height="124%"><feTurbulence type="fractalNoise" baseFrequency="0.045" numOctaves="2" seed="11" result="noise"></feTurbulence><feDisplacementMap in="SourceGraphic" in2="noise" scale="2.8"></feDisplacementMap></filter></defs><g class="silhouette" filter="url(#w296792-brush)"><g class="flame"><path d="M 50 158 C 28 156 14 144 18 128 C 26 116 42 120 54 138 Z" fill="url(#w296792-flame)" stroke="#a67a2e" stroke-width="1.6" stroke-linejoin="round" opacity="0.95"></path><path d="M 44 152 C 30 148 22 140 26 130 C 34 124 44 130 50 144 Z" fill="#fff8dc" opacity="0.6"></path></g><g class="hull"><path d="M 220 54 C 246 64 252 100 222 132 C 192 162 140 180 90 172 C 68 169 54 168 44 162 C 50 154 52 144 62 134 C 88 104 142 62 220 54 Z" fill="url(#w296792-hull)" stroke="#0c1820" stroke-width="3.2" stroke-linejoin="round"></path><path class="crease" d="M 218 60 C 168 82 110 122 60 156" fill="none" stroke="#0c1820" stroke-width="1.6" opacity="0.35" stroke-linecap="round"></path><path d="M 120 62 Q 170 50 218 56" fill="none" stroke="#7ba8b8" stroke-width="2" opacity="0.55" stroke-linecap="round"></path></g></g><g class="porthole"><circle class="porthole-well" cx="160" cy="102" r="22" fill="#0a1418" stroke="#0c1820" stroke-width="2.6"></circle><circle class="porthole-glow" cx="160" cy="102" r="22" fill="url(#w296792-window)"></circle><g class="crew-face"><circle cx="154" cy="101" r="2.6" fill="#f0ede4"></circle><circle cx="166" cy="101" r="2.6" fill="#f0ede4"></circle><path d="M 155 109 Q 160 113 165 109" fill="none" stroke="#f0ede4" stroke-width="1.6" stroke-linecap="round"></path></g><path d="M 144.6 91 Q 160 78.9 172.1 83.3" fill="none" stroke="#7fcad0" stroke-width="1.2" opacity="0.55" stroke-linecap="round"></path></g><circle class="insignia" cx="208" cy="76" r="3.2" fill="#d4a24c"></circle><circle cx="207" cy="75" r="1.1" fill="#fff" opacity="0.7"></circle><g class="trail"><circle cx="14" cy="118" r="2.6" fill="#d4a24c" opacity="0.9" style="--d:0s"></circle><circle cx="6" cy="106" r="1.8" fill="#d4a24c" opacity="0.6" style="--d:.25s"></circle><circle cx="22" cy="100" r="1.4" fill="#f0c478" opacity="0.5" style="--d:.5s"></circle></g><g class="sparkles"><path d="M 36 43.8 L 37.26 46.74 L 40.2 48 L 37.26 49.26 L 36 52.2 L 34.74 49.26 L 31.8 48 L 34.74 46.74 Z" fill="#d4a24c" style="--d:0s"></path><path d="M 232 192.4 L 233.08 194.92 L 235.6 196 L 233.08 197.08 L 232 199.6 L 230.92 197.08 L 228.4 196 L 230.92 194.92 Z" fill="#d4a24c" style="--d:0.4s"></path><path d="M 78 223 L 78.9 225.1 L 81 226 L 78.9 226.9 L 78 229 L 77.1 226.9 L 75 226 L 77.1 225.1 Z" fill="#d4a24c" style="--d:0.8s"></path><path d="M 182 217.6 L 182.72 219.28 L 184.4 220 L 182.72 220.72 L 182 222.4 L 181.28 220.72 L 179.6 220 L 181.28 219.28 Z" fill="#f0c478" style="--d:0.2s"></path><path d="M 244 57.8 L 244.66 59.34 L 246.2 60 L 244.66 60.66 L 244 62.2 L 243.34 60.66 L 241.8 60 L 243.34 59.34 Z" fill="#f0c478" style="--d:0.6s"></path></g></g><text x="218" y="128" font-family="DM Sans, system-ui, sans-serif" font-weight="700" font-size="98" letter-spacing="-3.5" fill="#f0ede4">naveo</text><circle cx="520" cy="124" r="7" fill="#d4a24c"></circle></svg>