
<svg xmlns="http://www.w3.org/2000/svg" viewBox="0 0 256 256" class="naveo-mark" data-variant="mono"><g fill="#0a0a0a" stroke="none"><path d="M 220 54 C 246 64 252 100 222 132 C 192 162 140 180 90 172 C 68 169 54 168 44 162 C 50 154 52 144 62 134 C 88 104 142 62 220 54 Z"></path><path d="M 50 158 C 28 156 14 144 18 128 C 26 116 42 120 54 138 Z" opacity="0.85"></path><circle cx="14" cy="118" r="2.6"></circle><circle cx="6" cy="106" r="1.8"></circle><circle cx="22" cy="100" r="1.4"></circle><circle cx="208" cy="76" r="3.2"></circle><path d="M 36 44.8 L 36.96 47.04 L 39.2 48 L 36.96 48.96 L 36 51.2 L 35.04 48.96 L 32.8 48 L 35.04 47.04 Z" fill="#0a0a0a"></path><path d="M 232 193.2 L 232.84 195.16 L 234.8 196 L 232.84 196.84 L 232 198.8 L 231.16 196.84 L 229.2 196 L 231.16 195.16 Z" fill="#0a0a0a"></path><path d="M 78 223.6 L 78.72 225.28 L 80.4 226 L 78.72 226.72 L 78 228.4 L 77.28 226.72 L 75.6 226 L 77.28 225.28 Z" fill="#0a0a0a"></path></g><circle cx="160" cy="102" r="22" fill="#0a0a0a" stroke="none"></circle><circle cx="160" cy="102" r="14" fill="none" stroke="#0a0a0a" stroke-width="2.4" opacity="0.4"></circle><circle cx="160" cy="102" r="6" fill="#0a0a0a" opacity="1"></circle></svg>