
<svg xmlns="http://www.w3.org/2000/svg" viewBox="0 0 200 240" fill="none">
  <defs>
    <linearGradient id="ebody" x1="0" x2="0" y1="0" y2="1">
      <stop offset="0" stop-color="#3a4d6a"></stop>
      <stop offset="1" stop-color="#16243a"></stop>
    </linearGradient>
    <linearGradient id="evisor" x1="0" x2="1" y1="0" y2="0">
      <stop offset="0" stop-color="#246d7a"></stop>
      <stop offset=".5" stop-color="#7fe5e8"></stop>
      <stop offset="1" stop-color="#246d7a"></stop>
    </linearGradient>
  </defs>
  <ellipse cx="100" cy="226" rx="56" ry="6" fill="#000" opacity=".35"></ellipse>
  
  <rect x="56" y="130" width="88" height="84" rx="24" fill="url(#ebody)" stroke="#0a0e1d" stroke-width="2"></rect>
  
  <rect x="70" y="148" width="60" height="44" rx="6" fill="#0e1726" stroke="#7fe5e8" stroke-width="1" opacity=".95"></rect>
  <line x1="76" y1="156" x2="124" y2="156" stroke="#7fe5e8" stroke-width="1" opacity=".5"></line>
  <line x1="76" y1="164" x2="124" y2="164" stroke="#7fe5e8" stroke-width="1" opacity=".5"></line>
  <line x1="76" y1="172" x2="124" y2="172" stroke="#7fe5e8" stroke-width="1" opacity=".5"></line>
  <line x1="76" y1="180" x2="124" y2="180" stroke="#7fe5e8" stroke-width="1" opacity=".5"></line>
  
  <path d="M77 156l2 2 4-4" stroke="#7fe5e8" stroke-width="1.4" fill="none"></path>
  <path d="M77 164l2 2 4-4" stroke="#7fe5e8" stroke-width="1.4" fill="none"></path>
  <path d="M77 172l2 2 4-4" stroke="#7fe5e8" stroke-width="1.4" fill="none"></path>
  
  <circle cx="50" cy="138" r="13" fill="#1a263c" stroke="#0a0e1d" stroke-width="2"></circle>
  <circle cx="150" cy="138" r="13" fill="#1a263c" stroke="#0a0e1d" stroke-width="2"></circle>
  
  <rect x="34" y="148" width="22" height="50" rx="11" fill="url(#ebody)" stroke="#0a0e1d" stroke-width="2"></rect>
  
  <rect x="144" y="148" width="22" height="38" rx="11" fill="url(#ebody)" stroke="#0a0e1d" stroke-width="2"></rect>
  <rect x="142" y="184" width="26" height="22" rx="4" fill="#0e1726" stroke="#7fe5e8" stroke-width="1.4"></rect>
  <line x1="146" y1="190" x2="164" y2="190" stroke="#7fe5e8" stroke-width="1.4"></line>
  <line x1="146" y1="195" x2="164" y2="195" stroke="#7fe5e8" stroke-width="1.4" opacity=".7"></line>
  <line x1="146" y1="200" x2="164" y2="200" stroke="#7fe5e8" stroke-width="1.4" opacity=".4"></line>
  
  <rect x="92" y="118" width="16" height="18" rx="4" fill="#1a263c" stroke="#0a0e1d" stroke-width="2"></rect>
  
  <rect x="48" y="42" width="104" height="82" rx="36" fill="url(#ebody)" stroke="#0a0e1d" stroke-width="2.5"></rect>
  
  <rect x="54" y="74" width="92" height="20" rx="10" fill="#0a0e1d"></rect>
  <rect x="58" y="78" width="84" height="12" rx="6" fill="url(#evisor)"></rect>
  <line x1="58" y1="84" x2="142" y2="84" stroke="#fff" stroke-width="1.4" opacity=".7"></line>
  
  <rect x="84" y="104" width="32" height="6" rx="2" fill="#0a0e1d"></rect>
  
  <line x1="86" y1="42" x2="86" y2="28" stroke="#0a0e1d" stroke-width="2"></line>
  <line x1="114" y1="42" x2="114" y2="28" stroke="#0a0e1d" stroke-width="2"></line>
  <circle cx="86" cy="26" r="3" fill="#7fe5e8"></circle>
  <circle cx="114" cy="26" r="3" fill="#7fe5e8"></circle>
</svg>